<?xml version="1.0" encoding="UTF-8" standalone="no"?>
<!-- Created with Inkscape (http://www.inkscape.org/) -->

<svg
   width="107.6834mm"
   height="21.021376mm"
   viewBox="0 0 107.6834 21.021376"
   version="1.1"
   id="svg1"
   xmlns="http://www.w3.org/2000/svg"
   xmlns:svg="http://www.w3.org/2000/svg">
  <defs
     id="defs1" />
  <g
     id="g4"
     transform="translate(-50.181375,-122.76849)">
    <path
       d="m 81.642102,124.26006 -0.564445,1.49014 h -2.867381 l -0.04515,13.56925 h -3.838226 l 0.02258,-13.56925 h -3.476981 l 0.632178,-1.49014 z m 7.947386,15.01424 h -5.283205 q -1.648179,0.0452 -2.05458,-0.0903 -0.564445,-0.2032 -1.151468,-1.30951 -0.338667,-0.65476 -0.338667,-1.67076 0,-1.44498 1.106313,-2.2352 0.835378,-0.56445 2.66418,-0.97085 0.338667,-0.0677 0.767645,-0.36124 0.51929,-0.31609 0.632179,-0.63218 0.06773,-0.22578 0.09031,-0.51929 0.04516,-1.2192 -2.348091,-1.2192 -0.677334,0 -1.377246,0.11289 l -0.72249,-1.24178 h 5.870228 q 1.061157,0 1.64818,0.83537 0.519289,0.69992 0.496711,1.55787 z m -3.612448,-5.91539 q -1.038579,0.51929 -1.422401,1.10632 -0.316089,0.45155 -0.316089,1.19662 0,0.85796 0.361244,1.55787 0.474134,0.88053 1.354669,0.97084 z m 5.644471,-4.22204 h 6.57014 q 0.564445,0.33866 1.354668,0.88053 1.512711,1.30951 1.941691,3.61245 0.0226,0.11289 0.0226,0.8128 0,1.80622 -1.28694,3.048 -1.28693,1.24178 -3.454399,1.30951 -0.09031,0.0226 -0.654756,0.27094 -0.880534,0.4064 -0.92569,1.15147 -0.06773,1.60302 0.02258,3.56729 h -3.58987 z m 3.522137,1.24178 v 8.08285 q 1.648179,-1.016 2.302935,-1.98685 0.564445,-0.83538 0.564445,-1.96427 0,-1.17404 -0.722489,-2.37067 -0.812801,-1.4224 -2.144891,-1.76106 z m 17.226872,1.69333 q -0.0452,1.33209 -1.17405,1.91911 -1.06115,0.38383 -2.09973,0.79023 -1.10632,0.51929 -1.10632,1.64818 0,1.06115 0.76765,1.4224 0.45156,0.2032 1.4224,0.2032 0.18062,0 1.51271,0.0452 l 0.63218,1.2192 q -4.92196,0.0677 -6.97654,0 -0.79022,-1.17404 -1.44498,-3.07058 -0.63218,-1.89653 -0.63218,-3.22862 0,-1.51271 0.79023,-2.59645 0.90311,-1.30951 2.59644,-1.30951 h 5.71219 q 0.0452,0.22578 0,2.95769 z m -3.22863,-0.79022 q 0,-1.39983 0,-1.17405 l -0.42898,0.13547 q -0.85795,0 -1.4224,0.8128 -0.42898,0.65476 -0.42898,1.30951 0,0.2032 0.15805,1.19663 0.2032,1.10631 0.36124,1.64817 0.4064,-0.79022 0.94827,-1.49013 0.47414,-0.58702 0.6096,-0.90311 0.2032,-0.51929 0.2032,-1.53529 z m 15.08199,-7.0217 q -0.24835,0.42898 -0.6096,1.51271 l -3.31893,-0.0226 q -2.39325,0 -2.39325,2.2352 0,1.37724 1.78365,2.09973 1.67075,0.63218 3.31893,1.28694 1.80623,1.06116 1.80623,3.27378 0,1.85138 -1.53529,3.27378 -1.51272,1.4224 -3.34152,1.39982 l -4.8768,-0.0226 -0.72249,-1.51272 q 0.22578,0 4.064,0 2.6416,-0.29351 2.6416,-2.25778 0,-1.2192 -1.8288,-1.94169 -3.13831,-1.26435 -3.36409,-1.4224 -1.80622,-1.17404 -1.80622,-3.47698 0,-1.73849 1.49013,-3.07058 1.49014,-1.35467 3.2512,-1.35467 z m 11.76304,15.03682 h -3.52213 v -6.11859 q 0.2032,-1.96427 -1.91912,-3.00284 v 9.144 h -3.49955 v -15.05939 h 3.4544 v 3.61245 q 0,0.90311 1.06116,1.51271 0.83537,0.49671 1.85138,0.63218 0.85795,0.11289 1.64818,0.76765 0.90311,0.74506 0.90311,1.69333 z m 6.2992,-12.41779 q 0,0.74506 -0.83538,1.15146 -0.6096,0.29352 -1.28693,0.29352 -0.65476,0 -1.33209,-0.31609 -0.85796,-0.4064 -0.85796,-1.08374 0,-0.72249 0.83538,-1.12889 0.65476,-0.31609 1.30951,-0.31609 0.65476,0 1.30952,0.31609 0.85795,0.4064 0.85795,1.08374 z m -0.47413,12.41779 h -3.4544 v -10.18259 h 3.4544 z m 8.64728,-5.91539 q -0.22578,0.22578 -0.45155,0.4064 -0.54187,0.4064 -0.94827,0.49671 -0.38382,0.0677 -0.99342,0.0226 v 5.01227 h -3.52214 l 0.0226,-4.78649 q -0.0677,0 -0.94827,0 0.15804,-0.6096 0.54187,-0.88053 0.38382,-0.27094 0.38382,-0.29352 l 0.0677,-7.15716 q 0,-0.72249 0.56445,-1.35467 0.47413,-0.56444 0.88053,-0.58702 0,0 3.58987,0 -1.64818,0.58702 -1.60302,1.96427 l -0.0452,6.88623 h 2.61903 z m 7.40551,-3.00284 q -1.19662,-0.11289 -1.73849,0.0226 v 7.65388 q 0,0.8128 0.74507,1.26435 -0.15805,0.0226 -1.87396,0.0226 -1.71591,0 -1.76107,-0.0226 -0.67733,-0.31608 -0.67733,-1.30951 v -7.63129 q -0.0452,-0.0452 -0.0903,-0.0452 -0.0452,0 -0.13547,0.0452 -0.0903,0.0452 -0.13547,0.0452 -0.0677,0 -0.11289,-0.0452 -0.13546,-0.18063 -0.6096,-1.26436 h 1.15147 q -0.0677,-1.55787 0.0677,-1.49014 l 3.47698,-1.06115 -0.0226,2.57387 1.17404,-0.0226 q 0.2032,0.45155 0.54187,1.26436 z"
       id="text1"
       style="font-size:22.5778px;font-family:'Lester Bold';-inkscape-font-specification:'Lester Bold, ';fill:#222222;fill-opacity:1;stroke-width:0.311944;stroke-linecap:square"
       aria-label="TapeShift" />
    <g
       id="g3"
       transform="matrix(0.43771468,0,0,0.43771468,25.85853,92.386573)">
      <path
         style="fill:#327f36;fill-opacity:1;stroke:none;stroke-width:3;stroke-linecap:square;stroke-dasharray:none;stroke-opacity:1"
         d="m 56.54891,94.188231 c 1.496256,8.541239 15.743463,16.417699 15.743463,16.417699 0,0 12.331543,2.79661 19.449668,-4.19492 7.118124,-6.991517 5.510078,-15.661011 5.510078,-15.661011 0,0 -4.111771,-16.904902 -17.759483,-20.623253 -13.647713,-3.71835 -24.439982,15.520249 -22.943726,24.061485 z"
         id="path3" />
      <circle
         style="fill:#388e3c;fill-opacity:1;stroke-width:0.311944;stroke-linecap:square"
         id="path1"
         cx="74.35408"
         cy="88.196587"
         r="18.786268" />
      <path
         id="path2"
         style="fill:#ecebe5;fill-opacity:1;stroke:none;stroke-width:5.15368;stroke-linecap:square;stroke-linejoin:miter;stroke-dasharray:none;stroke-opacity:1;paint-order:normal"
         d="m 73.874896,73.795346 -9.796036,11.119455 h 4.753328 c 0,0 -0.311115,3.881823 0.395306,6.357908 2.115258,7.291709 6.045683,8.309366 13.103174,7.781671 0,0 -6.196878,-1.691602 -6.196878,-10.15272 v -3.986859 h 4.55443 z" />
    </g>
  </g>
</svg>
